<?xml version="1.0" standalone="no"?>
<!DOCTYPE svg PUBLIC "-//W3C//DTD SVG 20010904//EN"
 "http://www.w3.org/TR/2001/REC-SVG-20010904/DTD/svg10.dtd">
<svg version="1.0" xmlns="http://www.w3.org/2000/svg"
 width="200.000000pt" height="200.000000pt" viewBox="0 0 200.000000 200.000000"
 preserveAspectRatio="xMidYMid meet">

<g transform="translate(0.000000,200.000000) scale(0.100000,-0.100000)"
fill="#000000" stroke="none">
<path d="M847 1984 c-210 -38 -414 -168 -526 -334 -44 -65 -62 -98 -30 -55 41
56 176 180 232 213 152 91 299 132 477 132 178 0 325 -41 477 -132 56 -33 191
-157 232 -213 32 -43 14 -10 -30 55 -47 70 -148 167 -228 219 -169 109 -397
153 -604 115z"/>
<path d="M891 1880 c-304 -42 -558 -245 -647 -516 -26 -81 -29 -101 -29 -224
1 -123 3 -141 27 -198 61 -145 191 -293 325 -369 78 -45 131 -68 139 -60 3 3
-3 66 -14 139 -11 74 -18 146 -15 161 8 43 53 74 198 134 l140 58 11 125 c7
69 15 172 19 229 6 81 11 107 26 122 24 24 64 24 87 1 20 -20 19 -5 39 -506 5
-145 9 -172 25 -188 33 -33 58 -22 141 62 61 61 85 80 106 80 31 0 61 -27 61
-55 0 -10 -45 -91 -100 -181 -55 -91 -100 -166 -100 -169 0 -8 34 7 103 47
134 77 264 225 325 370 24 57 26 75 27 198 0 123 -3 143 -29 224 -79 240 -287
429 -547 495 -92 23 -232 33 -318 21z m169 -244 c0 -2 3 -11 6 -19 3 -9 -12
-27 -44 -50 -65 -46 -91 -107 -73 -169 11 -34 10 -43 -2 -55 -40 -41 -86 37
-72 122 13 85 94 175 157 175 16 0 28 -2 28 -4z m197 -21 c78 -52 117 -152 91
-230 -16 -48 -41 -66 -63 -44 -13 13 -14 24 -6 58 16 73 -13 137 -79 171 -37
19 -51 46 -33 63 14 14 56 6 90 -18z"/>
<path d="M104 452 c-74 -35 -112 -122 -101 -229 17 -160 130 -229 282 -172
l55 20 0 100 0 99 -70 0 -70 0 0 -35 c0 -28 4 -35 20 -35 13 0 20 -7 20 -20 0
-15 -7 -20 -29 -20 -59 0 -90 83 -56 150 21 40 50 47 86 21 15 -12 42 -21 59
-21 l30 0 0 60 c0 56 -2 60 -30 75 -50 26 -148 29 -196 7z"/>
<path d="M367 423 c-13 -13 -8 -101 7 -106 9 -4 15 -30 18 -85 8 -132 53 -192
150 -199 111 -8 168 59 168 198 0 59 3 78 15 83 11 4 15 21 15 61 l0 55 -75 0
-75 0 0 -54 c0 -39 4 -55 15 -60 18 -6 21 -89 5 -130 -12 -34 -54 -44 -80 -21
-16 14 -20 31 -20 81 0 35 5 66 10 69 6 3 10 31 10 61 l0 54 -78 0 c-43 0 -82
-3 -85 -7z"/>
<path d="M770 375 c0 -31 4 -55 10 -55 6 0 31 -19 55 -41 l45 -42 -37 -41
c-20 -22 -45 -44 -55 -48 -14 -6 -18 -18 -18 -58 l0 -50 80 0 80 0 0 50 c0 42
-4 52 -20 58 -21 8 -20 8 3 30 l23 22 24 -25 c13 -14 18 -25 12 -25 -8 0 -12
-20 -12 -55 l0 -55 105 0 105 0 0 50 c0 43 -3 52 -22 59 -13 5 -38 25 -57 44
l-33 35 28 41 c16 23 39 44 52 47 21 6 23 11 20 58 l-3 51 -77 3 -78 3 0 -52
c0 -38 5 -55 18 -65 16 -12 16 -14 0 -30 -16 -16 -18 -16 -43 0 -20 13 -24 21
-16 29 6 6 11 35 11 64 l0 53 -100 0 -100 0 0 -55z"/>
<path d="M1190 375 c0 -31 4 -55 10 -55 6 0 30 -18 55 -41 l44 -41 -36 -43
c-20 -24 -44 -46 -54 -48 -15 -4 -19 -15 -19 -56 l0 -51 80 0 80 0 0 50 c0 42
-4 52 -20 58 -21 8 -20 8 3 30 l23 22 24 -25 c13 -14 18 -25 12 -25 -8 0 -12
-20 -12 -55 l0 -55 105 0 105 0 0 50 c0 43 -3 52 -22 59 -13 5 -38 25 -57 44
l-33 35 28 41 c16 23 39 44 52 47 19 5 22 13 22 60 l0 54 -80 0 -80 0 0 -51
c0 -38 5 -55 18 -65 16 -12 16 -14 1 -29 -16 -16 -19 -16 -43 0 -19 13 -24 21
-17 28 6 6 11 35 11 64 l0 53 -100 0 -100 0 0 -55z"/>
<path d="M1600 377 c0 -44 4 -56 20 -63 11 -5 40 -43 64 -84 35 -60 41 -77 30
-83 -9 -5 -14 -26 -14 -57 l0 -50 100 0 100 0 0 48 c0 26 -5 53 -11 59 -15 15
65 160 93 169 14 4 18 16 18 60 l0 55 -87 -3 -88 -3 -3 -49 c-2 -32 1 -52 10
-57 10 -6 9 -15 -5 -43 -9 -20 -20 -36 -25 -36 -14 0 -42 69 -32 75 6 3 10 31
10 61 l0 54 -90 0 -90 0 0 -53z"/>
</g>
</svg>
